<?xml version="1.0" encoding="iso-8859-1"?>
<!-- Generator: Adobe Illustrator 19.0.0, SVG Export Plug-In . SVG Version: 6.00 Build 0)  -->
<svg version="1.1" id="Capa_1" xmlns="http://www.w3.org/2000/svg" xmlns:xlink="http://www.w3.org/1999/xlink" x="0px" y="0px"
	 viewBox="0 0 512 512" style="enable-background:new 0 0 512 512;" xml:space="preserve">
<path style="fill:#FFEB99;" d="M497.231,83.692H14.769C6.613,83.692,0,90.305,0,98.462v315.077c0,8.157,6.613,14.769,14.769,14.769
	h482.462c8.157,0,14.769-6.613,14.769-14.769V98.462C512,90.305,505.387,83.692,497.231,83.692z"/>
<path style="fill:#FFE477;" d="M497.231,83.692H256v344.615h241.231c8.157,0,14.769-6.613,14.769-14.769V98.462
	C512,90.305,505.387,83.692,497.231,83.692z"/>
<path style="fill:#FFC477;" d="M497.231,83.692H14.769C6.613,83.692,0,90.305,0,98.462v98.462c0,6.804,4.647,12.727,11.256,14.345
	l142.428,34.88c4.506,1.104,9.269,0.026,12.861-2.911c3.592-2.936,5.596-7.39,5.409-12.025c-0.044-1.126-0.067-2.115-0.067-3.023
	c0-19.118,15.554-34.671,34.671-34.671s34.672,15.553,34.672,34.671c0,8.157,6.613,14.769,14.769,14.769s14.769-6.613,14.769-14.769
	c0-19.118,15.554-34.671,34.671-34.671c19.117,0,34.671,15.554,34.671,34.671c0,0.908-0.022,1.896-0.067,3.023
	c-0.185,4.636,1.818,9.089,5.409,12.025c2.666,2.179,5.976,3.335,9.348,3.335c1.172,0,2.351-0.14,3.512-0.424l142.428-34.88
	c6.611-1.618,11.258-7.541,11.258-14.345V98.462C512,90.305,505.387,83.692,497.231,83.692z"/>
<path style="fill:#FFB655;" d="M497.231,83.692H256v159.266c8.157,0,14.769-6.613,14.769-14.769
	c0-19.118,15.554-34.671,34.671-34.671c19.117,0,34.671,15.554,34.671,34.671c0,0.908-0.022,1.896-0.067,3.023
	c-0.185,4.636,1.818,9.089,5.409,12.025c2.666,2.179,5.976,3.335,9.348,3.335c1.172,0,2.351-0.14,3.512-0.424l142.428-34.88
	c6.611-1.618,11.258-7.541,11.258-14.345V98.462C512,90.305,505.387,83.692,497.231,83.692z"/>
<path style="fill:#FF728B;" d="M305.44,163.98c-19.866,0-37.654,9.068-49.44,23.283c-11.788-14.215-29.575-23.283-49.44-23.283
	c-35.406,0-64.21,28.804-64.21,64.21c0,19.471,5.41,38.516,15.647,55.078c10.236,16.562,24.852,29.919,42.267,38.626l49.132,24.567
	c2.08,1.04,4.342,1.559,6.605,1.559c2.263,0,4.526-0.52,6.605-1.559l49.132-24.567c17.415-8.707,32.031-22.064,42.267-38.626
	s15.647-35.609,15.647-55.078C369.651,192.784,340.846,163.98,305.44,163.98z"/>
<path style="fill:#FF3F62;" d="M262.605,346.462l49.132-24.567c17.415-8.707,32.031-22.064,42.267-38.626
	s15.647-35.609,15.647-55.078c0-35.406-28.804-64.21-64.21-64.21c-19.866,0-37.654,9.068-49.44,23.283v160.758
	C258.263,348.02,260.526,347.501,262.605,346.462z"/>
<g>
</g>
<g>
</g>
<g>
</g>
<g>
</g>
<g>
</g>
<g>
</g>
<g>
</g>
<g>
</g>
<g>
</g>
<g>
</g>
<g>
</g>
<g>
</g>
<g>
</g>
<g>
</g>
<g>
</g>
</svg>
